<svg width="21" height="32" viewBox="0 0 21 32" fill="none" xmlns="http://www.w3.org/2000/svg">
<path d="M2.336 29C2.22933 29 2.13333 28.968 2.048 28.904C1.984 28.8187 1.952 28.7227 1.952 28.616V6.984C1.952 6.87733 1.984 6.792 2.048 6.728C2.13333 6.64267 2.22933 6.6 2.336 6.6H6.08C6.18667 6.6 6.272 6.64267 6.336 6.728C6.42133 6.792 6.464 6.87733 6.464 6.984V15.944C6.464 16.008 6.48533 16.0507 6.528 16.072C6.57067 16.072 6.61333 16.0507 6.656 16.008L14.048 6.824C14.176 6.67467 14.336 6.6 14.528 6.6H18.752C18.9227 6.6 19.0293 6.65333 19.072 6.76C19.1147 6.84533 19.0933 6.952 19.008 7.08L11.872 16.2C11.808 16.2853 11.7973 16.36 11.84 16.424L19.392 28.552C19.4347 28.68 19.456 28.7547 19.456 28.776C19.456 28.9253 19.3493 29 19.136 29H14.912C14.6987 29 14.5493 28.9147 14.464 28.744L8.768 19.528C8.74667 19.4853 8.71467 19.464 8.672 19.464C8.62933 19.464 8.58667 19.4853 8.544 19.528L6.528 22.056C6.48533 22.1413 6.464 22.2053 6.464 22.248V28.616C6.464 28.7227 6.42133 28.8187 6.336 28.904C6.272 28.968 6.18667 29 6.08 29H2.336Z" fill="white"/>
</svg>
